<svg fill="#000000" viewBox="0 0 24 24" id="chat-4" data-name="Flat Color" xmlns="http://www.w3.org/2000/svg" class="icon flat-color"><g id="SVGRepo_bgCarrier" stroke-width="0"></g><g id="SVGRepo_tracerCarrier" stroke-linecap="round" stroke-linejoin="round"></g><g id="SVGRepo_iconCarrier"><path id="primary" d="M20,3H8A2,2,0,0,0,6,5V15a2,2,0,0,0,2,2h2v2a1,1,0,0,0,.51.87A1,1,0,0,0,11,20a1,1,0,0,0,.51-.14L16.28,17H20a2,2,0,0,0,2-2V5A2,2,0,0,0,20,3Z" style="fill: #000000;"></path><path id="secondary" d="M8,20a1,1,0,0,1-1,1H4a2,2,0,0,1-2-2V8A1,1,0,0,1,4,8V19H7A1,1,0,0,1,8,20ZM10,9h8a1,1,0,0,0,0-2H10a1,1,0,0,0,0,2Zm8,2H10a1,1,0,0,0,0,2h8a1,1,0,0,0,0-2Z" style="fill: #2ca9bc;"></path></g></svg>